<svg width="18" height="18" viewBox="0 0 18 18" fill="none" xmlns="http://www.w3.org/2000/svg">
<path d="M14.3773 6.15403C14.4557 6.23229 14.5178 6.32523 14.5603 6.42754C14.6027 6.52985 14.6245 6.63952 14.6245 6.75028C14.6245 6.86103 14.6027 6.9707 14.5603 7.07301C14.5178 7.17532 14.4557 7.26827 14.3773 7.34653L9.59604 12.1278C9.51778 12.2061 9.42483 12.2683 9.32252 12.3107C9.22021 12.3532 9.11054 12.375 8.99979 12.375C8.88903 12.375 8.77936 12.3532 8.67705 12.3107C8.57474 12.2683 8.4818 12.2061 8.40354 12.1278L3.62229 7.34653C3.54399 7.26823 3.48188 7.17527 3.4395 7.07296C3.39712 6.97066 3.37531 6.86101 3.37531 6.75028C3.37531 6.63954 3.39712 6.52989 3.4395 6.42759C3.48188 6.32528 3.54399 6.23233 3.62229 6.15403C3.70059 6.07573 3.79354 6.01361 3.89585 5.97124C3.99815 5.92886 4.1078 5.90705 4.21854 5.90705C4.32927 5.90705 4.43892 5.92886 4.54123 5.97124C4.64353 6.01361 4.73649 6.07573 4.81479 6.15403L8.99979 10.3379L13.1848 6.15403C13.263 6.07565 13.356 6.01348 13.4583 5.97106C13.5606 5.92864 13.6703 5.9068 13.781 5.9068C13.8918 5.9068 14.0015 5.92864 14.1038 5.97106C14.2061 6.01348 14.299 6.07565 14.3773 6.15403Z" fill="#2F2F2F"/>
</svg>
